<?xml version="1.0" encoding="UTF-8"?>
<svg id="Ebene_1" xmlns="http://www.w3.org/2000/svg" xmlns:xlink="http://www.w3.org/1999/xlink" version="1.1" viewBox="0 0 627.9 736.9">
  <!-- Generator: Adobe Illustrator 30.1.0, SVG Export Plug-In . SVG Version: 2.1.1 Build 136)  -->
  <defs>
    <style>
      .st0 {
        fill: #7b4d38;
      }

      .st1 {
        fill: #a04b1f;
      }

      .st2 {
        fill: #b48c40;
      }

      .st3 {
        fill: #7b4d12;
      }

      .st4 {
        fill: #7c543e;
      }

      .st5 {
        fill: #a68045;
      }

      .st6 {
        fill: #7d6a3f;
      }

      .st7 {
        fill: #957a4b;
      }

      .st8 {
        fill: #792a11;
      }

      .st9 {
        fill: #7b5a3f;
      }

      .st10 {
        fill: #cb631a;
      }

      .st11 {
        fill: #e49b78;
      }

      .st12 {
        fill: #e7c479;
      }

      .st13 {
        fill: #7b3d1f;
      }

      .st14 {
        fill: #e27878;
      }

      .st15 {
        fill: #a84419;
      }

      .st16 {
        fill: #7b4b3f;
      }

      .st17 {
        fill: #7e4e41;
      }

      .st18 {
        fill: #836643;
      }

      .st19 {
        fill: #792615;
      }

      .st20 {
        fill: #7c753f;
      }

      .st21 {
        fill: #ae6848;
      }

      .st22 {
        fill: #a66d57;
      }

      .st23 {
        fill: #7c573f;
      }

      .st24 {
        fill: #7e5127;
      }

      .st25 {
        fill: #7b422b;
      }

      .st26 {
        fill: #927619;
      }

      .st27 {
        fill: #7b471d;
      }

      .st28 {
        fill: #7a3317;
      }

      .st29 {
        fill: #7b433f;
      }

      .st30 {
        fill: #7c6d3f;
      }

      .st31 {
        fill: #a48a55;
      }

      .st32 {
        fill: #e7b240;
      }

      .st33 {
        fill: #ae882e;
      }

      .st34 {
        fill: #bd461a;
      }

      .st35 {
        fill: #7b5629;
      }

      .st36 {
        fill: #7b583f;
      }

      .st37 {
        fill: #7a4112;
      }

      .st38 {
        fill: #7b4c39;
      }

      .st39 {
        fill: #805542;
      }

      .st40 {
        fill: #7b4c12;
      }

      .st41 {
        fill: #211916;
      }

      .st42 {
        fill: #7a3318;
      }

      .st43 {
        fill: #d19e6c;
      }

      .st44 {
        fill: #b5745e;
      }

      .st45 {
        fill: #d4652b;
      }

      .st46 {
        fill: #7c6e3f;
      }

      .st47 {
        fill: #ad725a;
      }

      .st48 {
        fill: #ae481b;
      }

      .st49 {
        fill: #96664e;
      }

      .st50 {
        fill: #7c3315;
      }

      .st51 {
        fill: #8f6c3d;
      }

      .st52 {
        fill: #7b4f3e;
      }

      .st53 {
        fill: #876b44;
      }

      .st54 {
        fill: #cd8949;
      }

      .st55 {
        fill: #7b4121;
      }

      .st56 {
        fill: #e48678;
      }

      .st57 {
        fill: #7b4912;
      }

      .st58 {
        fill: #fff;
      }

      .st59 {
        fill: #7c5c27;
      }

      .st60 {
        fill: #d37d55;
      }

      .st61 {
        fill: #d8372f;
      }

      .st62 {
        fill: #3f783e;
      }

      .st63 {
        fill: #d98b72;
      }

      .st64 {
        fill: #7b491f;
      }

      .st65 {
        stroke-linecap: round;
        stroke-width: 2.4px;
      }

      .st65, .st66 {
        fill: none;
        stroke: #fff;
        stroke-miterlimit: 10;
      }

      .st67 {
        fill: #7a3b11;
      }

      .st68 {
        fill: #221a18;
      }

      .st69 {
        fill: #792d10;
      }

      .st70 {
        fill: #813d14;
      }

      .st71 {
        fill: #7a4327;
      }

      .st72 {
        fill: #be935d;
      }

      .st73 {
        fill: #804413;
      }

      .st74 {
        fill: #7d633f;
      }

      .st75 {
        fill: #7c593f;
      }

      .st76 {
        fill: #7b503f;
      }

      .st77 {
        fill: #837b21;
      }

      .st78 {
        fill: #d5ab6f;
      }

      .st79 {
        fill: #7d4126;
      }

      .st66 {
        stroke-dasharray: 4.6 4.6 4.6 4.6 4.6 4.6;
        stroke-width: 2.4px;
      }

      .st80 {
        fill: #db6a35;
      }

      .st81 {
        fill: #a45547;
      }

      .st82 {
        fill: #cd866b;
      }

      .st83 {
        fill: #62211c;
      }

      .st84 {
        fill: #7a452c;
      }

      .st85 {
        fill: #825543;
      }

      .st86 {
        fill: #c28f66;
      }

      .st87 {
        fill: #9a462e;
      }

      .st88 {
        fill: #ce9b6a;
      }

      .st89 {
        fill: url(#Unbenannter_Verlauf_52);
      }

      .st90 {
        fill: #7b5212;
      }

      .st91 {
        fill: #79381c;
      }

      .st92 {
        fill: #7c523f;
      }

      .st93 {
        fill: #7b4b1f;
      }

      .st94 {
        fill: #7b5f26;
      }

      .st95 {
        fill: #a66b49;
      }

      .st96 {
        fill: #7e3514;
      }

      .st97 {
        fill: #7b543f;
      }

      .st98 {
        fill: #7c5b3f;
      }

      .st99 {
        fill: #7b7740;
      }

      .st100 {
        fill: #7b4612;
      }

      .st101 {
        fill: #7c533e;
      }

      .st102 {
        fill: #b87f5f;
      }

      .st103 {
        fill: #7d643f;
      }

      .st104 {
        fill: #a57150;
      }

      .st105 {
        fill: #7b6b1c;
      }

      .st106 {
        fill: #7d5f3f;
      }

      .st107 {
        fill: #7a3314;
      }

      .st108 {
        fill: #a77355;
      }

      .st109 {
        fill: #8e8e4a;
      }

      .st110 {
        fill: #b06a4a;
      }

      .st111 {
        fill: #7e6d40;
      }

      .st112 {
        fill: #c66d47;
      }

      .st113 {
        fill: #7b4d1b;
      }

      .st114 {
        fill: #7d663f;
      }

      .st115 {
        fill: #ce9d6a;
      }

      .st116 {
        fill: #d9d95d;
      }

      .st117 {
        fill: #e2832b;
      }
    </style>
    <linearGradient id="Unbenannter_Verlauf_52" data-name="Unbenannter Verlauf 52" x1="-1418.7" y1="283.4" x2="-1401.7" y2="298.4" gradientTransform="translate(-1047.7) rotate(-180) scale(1 -1)" gradientUnits="userSpaceOnUse">
      <stop offset="0" stop-color="#7a2b10"/>
      <stop offset="1" stop-color="#d4cd72"/>
    </linearGradient>
  </defs>
  <path class="st93" d="M440.6,465.1c1.9.6,4.4-.1,6.2.9s3.2.4,4.7.2c-.4,0,6,2.1,5.4.8-3.7,0,7.3,2.3,4.9,1.5,1.9.6,3.8,1,5.8,1.5l4,1c1.9.5,4.7.8,6.7,1.7,4.7,2.1,8.1,6.7,12.6,9.4,0-.8.6-1,1.3-1.1-2.4-2-4.5-4.6-7.2-6.5,2.9-.1,10.6,1.8,11.7,0s-9.6-12.9-11.9-14.8c3.5-.8-2.7-2-1.4-2.2-2.4,0-5.1-.8-7.8-2.1-5.9-2.7-11.3-6-14.9-10.9,1.5,2-7.7-8.1-7.3-8.8-2.1,10.6-7.1,20.2-12.8,29.4Z"/>
  <g>
    <path class="st16" d="M326.3,516.3c0,.5-.3,1-1,1.4l-42.8,31.2c-1.1.8-.4,4.1-1.6,3.5s-4.3-5.5-6.3-4.8c3.6,1.7,7.5,8.3,4.5,8.2-1.6,0-3.7-3.2-8.3-5.3s-.8-.7-.8-1c-.4,0-.6.7-1,.7,3.1,1.5,6.2,3.4,7.8,7.1-4.7,2.3-5.5-2.3-8.9-2.6,1.2,1.3,2.7,1.6,3.7,3.2-3.2,5.2-10.9,8.4-16.3,9.5-1-1.4-1.9-3.4-3.8-3.1,3.2-1.1,6.5-1.1,8.9-3.5-9.3,3.1-18.4,5.1-28.4,4.7,0-1.5.4-2.8.1-4-2.8-.4-3.8-.7-6.3.5,0,.9.8-.2,1.1.1,1.1,1.2,1.3,3.6,0,4.3s-2.2,1.4-3.1,1.6c.2,1.5.7,3,1.7,3.8,3.5,2.9,6.9-.7,9.2-1.1,3.7-.7,8.4-1.3,11.8-1.8,5.1-3.7-.3-1.6,3.6-2.5,1.1-.3,1.8.4,2.2,1.2,1.5,2.6-2.5,4.8-2.3,6,0,.2,0,.4,0,.7,2.4,2.1,4.5,0,6.9-.7,5.7-2,11-3.8,15.6-7.7,2.1-.2,5.1.3,7.4.8,8.3,1.8,16.2,2.1,24.6,1.8,3.1,3.1,7.7,2.9,10-.3.7-1,0-2.3.9-3-1.4,0-2.6-1.1-2.6-2.7s-.2-1.5,0-2.2c-.3-2.2-5.6-.8-6.6-.3l.2,3.6-14.7-.2c-2.4,0-4.7-.9-6.1-3-.2-.4.4-.8.4-1-1-.1-2.5-2-2-3.1,1.3-3.3,3.6-5.6,6.4-7.5l46.6-31.9c-3.3.3-7.3-.6-10.7-.7Z"/>
    <path class="st19" d="M318.4,515.7l-36.9,26.1-8.3,5.3c-1.2.7-2.5,1.5-3.1,2.4,0,.3.4.8.8,1,4.5,2.1,6.6,5.3,8.3,5.3,3,0-.8-6.5-4.5-8.2,2-.7,5.3,4.2,6.3,4.8s.4-2.7,1.6-3.5l42.8-31.2c.7-.5,1-1,1-1.4-2.4,0-5.6-.2-7.9-.6Z"/>
    <path class="st92" d="M232.1,561.6c.3,1.2,0,2.5-.1,4,10,.4,19.1-1.6,28.4-4.7-2.4,2.4-5.7,2.3-8.9,3.5,1.9-.3,2.8,1.7,3.8,3.1,5.3-1.2,13.1-4.4,16.3-9.5-1-1.6-2.5-1.9-3.7-3.2,3.4.3,4.2,4.8,8.9,2.6-1.6-3.6-4.7-5.6-7.8-7.1-1.9.5-2.6,3.1-4.2,3.9-8.1,4.1-25.3,8.6-32.8,7.4Z"/>
    <path class="st74" d="M286,559.4c0,.2-.5.5-.4,1,1.4,2.1,3.7,3,6.1,3l14.7.2-.2-3.6c-6.7.3-13.5.3-20.1-.6Z"/>
    <path class="st80" d="M312.8,560.3c-.2.6,0,1.3,0,2.2,0,1.6,1.2,2.7,2.6,2.7,4.9,0,9.1,1.8,13.1,5.6-1-7.6-8.8-11.2-15.7-10.5Z"/>
    <path class="st87" d="M223.8,568.1c.9-.2,2-1,3.1-1.6s1.2-3.2,0-4.3-1.1.7-1.1-.1c-3,1.3-6.3,1.5-8.1,5.3-1,2.2-2.1,5.2-.2,7.5,1.3-3.3,3.3-6,6.3-6.6Z"/>
    <path class="st62" d="M250,566.6c-2.2,3.2-2.6,1.4-3.1,5.4s-.3.3-.6.2c-1.6,2.7-.6,6.7,1.6,9,.5-2.7.4-5,1.5-6.9s.2-.7.5-.6c-.2-1.2,3.8-3.4,2.3-6-.5-.8-1.2-1.4-2.2-1.2Z"/>
    <path class="st58" d="M246.4,569.1c0,1.1,0,2.1-.1,3.1.3.1.6,0,.6-.2.5-4,.9-2.2,3.1-5.4-3.9.9,1.4-1.2-3.6,2.5Z"/>
    <path class="st58" d="M249.4,574.3c.2,0,.4,0,.6,0,0-.2,0-.4,0-.7-.3-.1-.4.3-.5.6Z"/>
  </g>
  <g>
    <path class="st42" d="M387.7,513c.2.3.4,1.1,1,1.7l-10.3,14.4c-8.2,11.5-16.7,25-23.4,35.5s-1.2-.9-1.3-.6c-1.3,3.7.7,4.5-.6,6.5-.7-1.5-1.1-2.3-2.3-2.8s-1.5-2.9-3.5-2.6c1.4,1.8,3.7,2.7,4.2,5,.5,2.2,1.9,4.2.5,6.4-2.7-3.8-5.8-6.8-9.8-8,0,.6-.1.8.6,1,4,1.2,7.6,4.5,8.1,8.8l-4.6-1.7c.3,1.1,1.5,1.3,2.1,2.4-2.9,3.8-4.9-3.4-11.4-2.6,3.3,1.1,6,2.4,8.3,5.3.3.3,1.3.4.6.9-1.1.9-3.4-.1-8.2,2.8-6.2,3.8-12.6,6.9-19.6,8.1-.4-1.3-.8-2.2-1.7-3.1,7.6-1.7,14.1-4.9,19.9-9.6-13.1,6.9-24.7,8.9-39.4,9.7-.4-1.3-.5-2.3-.2-3.4,6.8-.8,12.1-1.5,18.5-2.8-1.2-.8-2.5-.2-3.9,0-3.8.6-8,.4-11.7-.7-1.1-.5,0-2.5-.4-3.2-1.1,0-2.9-1.2-3.7.4,1.1,1.5.5,4.9-1.7,5.3-.4,1.7,1.1.5,1.5,3.3.1.9-.4,1.7-1.3,2.2-.5-1.5,0-3.4-1-4.5s-1.6-.5-1.8,0,.9,2.4.9,3.6-.7,1.2-1.4,1.5c-1.6.7-3.4,1.2-5.1,1.6.6-.2.7.4.9,1,1,3,4.5,4.2,7.3,3l4.7-2,10.1-2.3c.8-.2,1.4-.7,2.2-.7s1.7-.9,2.6-.5c.3-.3-.5-.6-.3-.7.3-.1.8-.8,1.4-.8,1,0,2.4,1.3,2.3,2.1-.3,1.6-.4,2.4-1.8,2.9,2.8-1.1-6.6,4-4.2,3.2,1.2,2.9,4.2,2,6.7,1,7.4-3,14.4-6,21.2-10.2,3-1.8,6.2-2.6,9.7-1.9,6.7,1.4,13.3,1.9,20.1,1.4,5.8-.4,7.5,4.7,12.4,1.2,1.4-1,1.5-2.9,1.9-4.8-1.2,0-1.8-1.5-2.7-2.3.2.7-.5,1.1-1.1,1.2-1,.2-1.4-.6-1.2-1.7.2-1-.2-2.5.9-2.9s.8.7,1.1.4.4,0,.5,0c0-1.7-5.6-1.2-5.7-.1,0,1.1.4,2.2,0,3.8-6.3.2-12.5.4-18.9-.1s-1.6-1.3-1.8-1.8.2-1.5.3-2.1c-2.9.4,7.9-17.1,8.7-18.3l21-31.4,11.9-17c-4,.1-4.7-.3-8.1-.5Z"/>
    <path class="st49" d="M379.8,514c-4.7,8-10,15.6-15.4,23.7-5.8,8.6-15.9,25.2-22.2,30.9,4,1.2,7.1,4.2,9.8,8,1.4-2.2,0-4.2-.5-6.4-.5-2.3-2.7-3.3-4.2-5,1.9-.3,2.1,2.1,3.5,2.6s1.6,1.3,2.3,2.8c1.4-2.1-.7-2.8.6-6.5.1-.3.8,1.2,1.3.6,6.7-10.5,15.1-24,23.4-35.5l10.3-14.4c-.5-.6-.8-1.3-1-1.7-.9-1-2.1-2.8-3.1-3.5-1.7,1.1-3.7,2.7-4.7,4.5Z"/>
    <path class="st1" d="M299.1,580.5c.3.7-.7,2.7.4,3.2,3.7,1.2,7.9,1.3,11.7.7s2.7-.8,3.9,0c-6.3,1.3-11.7,2-18.5,2.8-.3,1.1-.2,2.2.2,3.4,14.8-.8,26.3-2.8,39.4-9.7-5.8,4.7-12.3,7.9-19.9,9.6.9.8,1.3,1.7,1.7,3.1,7-1.2,13.4-4.3,19.6-8.1,4.8-2.9,7.1-1.9,8.2-2.8.7-.6-.3-.6-.6-.9-2.2-2.8-4.9-4.1-8.3-5.3,6.5-.8,8.6,6.4,11.4,2.6-.6-1.1-1.7-1.2-2.1-2.4l4.6,1.7c-.5-4.3-4.1-7.6-8.1-8.8-.7-.2-.6-.4-.6-1-6.1,5.5-4.6,10.1-20,12.5-8,1.2-15.5-.4-23.1-.5Z"/>
    <path class="st94" d="M381.3,501.2l3.3,8.3c1,.7,2.3,2.6,3.1,3.5,3.4.2,4.1.6,8.1.5,6.1-3.6,8.7-10.7,8.7-17.5-7.1,2.9-15.7,3.1-23.2,5.1Z"/>
    <path class="st78" d="M285.6,593.9c1.7-.5,3.5-.9,5.1-1.6-.1-1.2.7-4.6-1-4.4l-4.7.7c2.7-1.8,5.8-1.8,8.7-2.4,2.1-.4,2.8-3.8,1.7-5.3-12.3.5-13.6,8.7-14.6,9.7-2.9,3-5.9,6-4.9,10.7,2.3-3.9,5.6-6.3,9.6-7.4Z"/>
    <path class="st102" d="M374.6,580.4c-6.8,0-13.7.8-20.4-.3-.1.6-.6,1.5-.3,2.1s.7,1.7,1.8,1.8c6.4.6,12.6.3,18.9.1.4-1.6,0-2.7,0-3.8Z"/>
    <path class="st63" d="M380.4,580.5c-.1,0-.4,0-.5,0,.2.7-.3,2.4.3,3,.9.8,1.5,2.4,2.7,2.3,4.7-.4,8.6,2.3,12.1,6.2-.2-7.6-7.7-12.1-14.6-11.5Z"/>
    <path class="st117" d="M377.3,509.5c.3,1.6,1.6,3.3,2.5,4.5,1.1-1.9,3-3.4,4.7-4.5l-3.3-8.3c-1.2.3-2.5,0-4.2.5-.3,2.5-.3,5.3.2,7.8Z"/>
    <path class="st92" d="M310.8,592.8c0,1.1-1.6.9-2.1,1.5-2.9,3.5-5.1,8-3,12.8,1.4-3.2,2.5-6.4,5.1-8-2.4.9,7-4.3,4.2-3.2,0-1.4-.3-3-1.6-3.6s-1.7.5-2.6.5Z"/>
    <path class="st58" d="M308.6,593.6c-.4.3.3.5.1.8.5-.6,2.2-.4,2.1-1.5-.8,0-1.5.6-2.2.7Z"/>
    <path class="st39" d="M290.6,592.3c.7-.3,1.3-.5,1.4-1.5s-1.1-2.9-.9-3.6,1.3-.5,1.8,0c1.1,1.1.5,3,1,4.5.9-.4,1.4-1.3,1.3-2.2-.4-2.7-2-1.6-1.5-3.3-3,.6-6.1.5-8.7,2.4l4.7-.7c1.6-.2.8,3.1,1,4.4Z"/>
    <path class="st85" d="M313.4,592.3c1.3.7,1.7,2.2,1.6,3.6,1.3-.5,1.5-1.3,1.8-2.9s-1.2-2.1-2.3-2.1-1.1.7-1.4.8.6.4.3.7Z"/>
    <path class="st37" d="M380.1,583.6c-.5-.6,0-2.3-.3-3-.2.3-.7-.6-1.1-.4-1,.4-.7,1.9-.9,2.9-.2,1.1.2,1.9,1.2,1.7s1.2-.5,1.1-1.2Z"/>
  </g>
  <path class="st58" d="M255.2,273.4c.4-.2.5.4.6.6l8.6-.5,36.3-.3c-2.3-3.3-5.3-4.9-6.9-8.1,3.7,3.7,7.8,7.2,12.9,8.3,2.8-.2,6.1-.5,8.9-1,8.9-1.7,17.2-5.1,24.8-10,.4-.6,1.2-1,1.6-1.4l6.2-6.3c.5-.9,1.2-1.8,1.9-2.5s.9-2.8,2.1-3.6.2-1.3.9-1.4c.1-1.8,1.5-4.7,2.2-6.2s.3-1.3,0-1.6c-.9-.8-.3-2.3-.3-3.6,0-1.8-.9-3.5-.9-5.3,0-2.5-2.9-14.6-4.7-18.6s-1.8-1.3-1.4-2.5c-1.6,3.9-3.8,7.7-5.6,11.5-6,12.3-13.8,20.1-27.2,23.7l-7.3,1.9c-9.4,2.5-18.6,0-26.2-5.8-3.6-2.8-6.6-5.9-9.7-9.2-6-6.4-12.1-12.4-19.2-17.8v-2.6c-1.9-.3-2.9-1.7-4.4-3,.2,2,1.5,2.8,2.3,4.6-2.2-.8-4-.7-6.5-1.3.1,5.4-6.7,9-7.3,11.5-.5,1.9-1.5,3.4-3.4,2.8,5.6,6.6,9.1,13.5,11.9,21l10,26.6Z"/>
  <path class="st56" d="M188.7,173.5h.6c0-.4.4-.9-.6-1.9.5-.5,1-1.2,1.4-1.8l1.7,4.7c1,0,2-.7,3.1-1.3,4.7-2.9,9.5-4.9,14.9-4.7,3.4,5.7,12.3,14,18.6,15.3,3.3-.5,5.8-2.4,8.3-4.1,2.3-4.3,4.7-8.5,7.5-12.8,7.9-12.5,20.4-20.1,35.2-20.7l25.3-1c-20.1-12.6-45-17.9-69-14.2-15.9,2.5-32.3,9.7-41.6,23.3-3.9,5.8-6.1,12.6-5.5,19.2Z"/>
  <path class="st36" d="M304.7,145.1l-25.3,1c-14.9.6-27.3,8.2-35.2,20.7-2.8,4.4-5.2,8.5-7.5,12.8l10.2-6.7c1.6-1,3.2-1.9,5-2.1.9,1.2,1,2.2,1.7,2.8l12.3-2.1c12-6.1,34.4-3.3,48.5-1.5,2.1.3,4.1.4,5.6,1.8-.9,1.1-2.2.4-3.2,1.2,3.4.6,6.5,1,9.4,2.4-.4,1-1.2.4-2.1,1,3.7,2.1,6.8,4.6,9.9,7.8-6.2,0-11.6,1-17,1.8.1.9-1.1.3-1.9,1.2,3.4,2.7,6.7,5.2,8.6,9.2.7,1.4.2,3.6,1.5,4.5,4.3,3.1,7.2,9,10.1,13.2,1.8,2.5,2.5,5.7,5.4,7.5.4,0,1.1-.4,1.5-.4,1.9-3.8,4.1-7.6,5.6-11.5.4-1.1.2-2-.2-3.1-8.7-26.2-19.3-46.4-42.9-61.2Z"/>
  <path class="st69" d="M232.6,216.4c-1.7.6-3.3,1.3-5,2,.9-1.7,1.6-3.5,2.6-5,1.3.3,2.8.7,4.5,1.4-.9.9-2.3.6-2.1,1.7Z"/>
  <path class="st2" d="M278.3,206.4c-6.7,3.9-14.8,5.7-22.8,5.4-1.2,0-2.1-.6-3-.8v2.6c7.2,5.4,13.2,11.4,19.2,17.8s6.2,6.5,9.7,9.2c7.5,5.8,16.8,8.3,26.2,5.8l7.3-1.9c4.2-3.4,8.1-7.1,10.2-12.4,2.1-5.3,1.7-10.3,1.6-15.4-.5.3-.7.5-1,.2-1-.8-2.2-4.9-9.7-7.7s-20.4-3.8-31-2.3c-2.6.4-5,1.3-7.7,1,0-.8.8-.5,1-.9s0-.6,0-.8Z"/>
  <path class="st4" d="M265.9,171.4c5-.9,9.9,3.4,13.8,6.2-1.2,1.9-2,2.9-3.2,4.3,1.8,3.5.2,3.8,4.3,4.5,2.5.4,7.8.6,9.3-2.9l13.4,2.5c.1.2.3.2.5,0,4.3,0,8.7.3,13-.2s10.8-1.7,17-1.8c-3.2-3.2-6.2-5.7-9.9-7.8.9-.6,1.7,0,2.1-1-2.9-1.4-5.9-1.8-9.4-2.4,1-.8,2.3,0,3.2-1.2-1.5-1.4-3.5-1.5-5.6-1.8-14.1-1.9-36.5-4.7-48.5,1.5Z"/>
  <path class="st32" d="M311.9,192c-8.4-1-16.8,2.2-23.8,7.6-3.4,2.6-6.4,4.9-9.8,6.8,0,.2.1.6,0,.8-.2.3-1.1,0-1,.9,2.7.3,5.1-.6,7.7-1,10.6-1.5,21-1.4,31,2.3s8.7,6.8,9.7,7.7.6,0,1-.2c-.3-9.3-3.5-23.5-14.8-24.8Z"/>
  <path class="st38" d="M304,186c-.8,1.4,2.9.5,3.9.9s.2,3.2.5,3.7c1,1.7,5.2-.5,3.4,1.4,11.3,1.3,14.5,15.6,14.8,24.8.2,5.1.6,10.2-1.6,15.4-2.1,5.3-6,9-10.2,12.4,13.5-3.6,21.2-11.3,27.2-23.7-.3,0-1,.4-1.5.4-2.9-1.8-3.7-4.9-5.4-7.5-2.9-4.2-5.8-10.1-10.1-13.2-1.3-.9-.8-3.1-1.5-4.5-1.9-3.9-5.2-6.4-8.6-9.2.8-.9,2-.3,1.9-1.2-4.3.6-8.7.3-13,.2Z"/>
  <path class="st6" d="M228.3,217.9c-.2.5-.4,1-.7,1.5-.9.4-2,.4-3.1.4,1.2-.7,2.5-1.3,3.7-1.9Z"/>
  <path class="st101" d="M236.7,179.6c-2.6,1.7-5,3.5-8.3,4.1,4.6.9,10.9.3,14.2-3.9.3.8-.3,1.3.1,2,4.5-1.9,8.7-4.3,10.9-8.2-.8-.6-.9-1.6-1.7-2.8-1.7.2-3.4,1.1-5,2.1l-10.2,6.7Z"/>
  <path class="st54" d="M280.9,186.4c-.1.5,0,1.2.7,1.5,5.4,2.3,11.1,1.6,16.7,0s-1.3-1,5.4-2l-13.4-2.5c-1.5,3.6-6.9,3.3-9.3,2.9Z"/>
  <path class="st41" d="M212.1,183.3c.3,1.6,2.4,2.7,3.8,3.6l3.2,2c-1.4-1.6-1-3.3-.4-5.3-.2-1.4-2.7-3.1-4-3.2s-2.2.5-2.3,1c-.2.9.4,1.9-.3,1.9Z"/>
  <path class="st98" d="M189.2,173.5c0,.7.5,1,1,1.4s1.2-.1,1.5-.4l-1.7-4.7c-.4.6-.9,1.3-1.4,1.8.9,1,.6,1.5.6,1.9Z"/>
  <g>
    <path class="st6" d="M311.9,192c-8.4-1-16.8,2.2-23.8,7.6-3.3,2.6-6.4,4.9-9.8,6.8-6.7,3.9-14.8,5.7-22.8,5.4-1.2,0-2.1-.6-3-.8-1.8-.3-2.8-1.7-4.3-3,.2,2,1.5,2.8,2.3,4.6-2.2-.8-4-.7-6.5-1.3.1,5.4-6.7,9-7.3,11.5-.5,1.9-1.5,3.4-3.4,2.8,5.6,6.6,9.1,13.5,11.9,21l10,26.6c0,.2,0,.6-.2.7-.1,0-.4.2-.8.2l-30.9,2.9c-6.1.6-11.8.9-17.7,0-5-.8-10.2-2.3-14.2-5.4-3.2-2.5-5.2-6.7-6.7-10.2-2.7-7.2-3-15.4-2.6-23.2.3-4.9,1.8-15.3,3.8-19.7l15.3,2.6c5.4-.1,10.6-1.4,15.6-3.8,2.8-1.3,5.4,3.2,8.2,1.9.7,0,1.5,0,2.2-.2.2-.3.3-.6.5-.9.9-1.7,1.6-3.5,2.6-5,.8-1.2,1.7-2.3,3-3,2.8-1.6,6,.2,9.1.1-3.5-2.3-9.9-10.5-12.5-13.9-.4-.5-.7-.9-1-1-.8-2.8-8-5.7-9.7-6.8-1.4-1.6-1-3.3-.4-5.3-.2-1.4-2.7-3.1-4-3.2-.8,0-2.2.5-2.3,1-.2.9.4,1.9-.3,1.9-1-4.9.4-9.2-2.2-14-6.8,4-14.3,6.6-20.2,10.9-.7-2.2-.9-4.5-1.1-6.8h.6c0,.7.5,1,1,1.4.6.5,1.2-.2,1.5-.4,1,0,2-.7,3.1-1.3,4.7-2.9,9.5-4.9,14.9-4.7,3.4,5.7,12.3,14,18.6,15.3,4.6.9,10.9.3,14.2-3.9.3.8-.3,1.3.1,2,4.5-1.9,8.7-4.2,10.9-8.2l12.3-2.1c5-.9,9.9,3.5,13.8,6.2-1.2,1.9-2,2.9-3.2,4.3,1.8,3.5.2,3.8,4.3,4.5-.1.5,0,1.2.7,1.5,5.4,2.3,11.1,1.6,16.6,0,5.2-1.4-1.3-1,5.4-2,.1.2.3.2.5,0-.8,1.4,2.9.5,3.9.9.8.3.2,3.2.5,3.7,1,1.7,5.2-.5,3.4,1.4Z"/>
    <path class="st0" d="M254.2,185.9c-.6.2-1,.2-.8.7,1.2,5.2.4,8.8,5.5,10.8s2.4,2.3,3.6,1.6.7,1,1.3.7,1.1.2,1.2-.5,5,1.3,9-5.7c2.6-4.5,1.6-9.5-2.2-12.8-.7-.4-1.3-.5-1.9-.2s-.4.5-.3,1,.5.5,1,1c3.5,3.9,1.9,11.2-3,12.9s-5.1,2-7.9,0c-2.6-1.9-4.9-5.9-3-8.7.4-.6.4-1.1-.3-2.4-.9.6-1.3,1.6-2.2,1.8Z"/>
    <path class="st14" d="M260.3,203.1c2.5,2.2,5.9,1.8,9.4,1.1,7.8-1.4,12.9-11.1,8.9-11-2.8,0-4.4,9.9-18.3,9.9Z"/>
    <path class="st97" d="M253.2,185.3c2.4-4.7,7.4-7.7,12.7-8,0-1-1.4-.4-1.9-1.6-7.9,1.1-16.3,9.8-12.6,18,.7.6,1.1,1.2,1.3,0-1.6-3.3-.8-6,.5-8.5Z"/>
    <path class="st44" d="M275.9,180.8c.9.1,1.6-1.6,1-2.5-2.1-3.2-6.7-5.2-10.3-3,4,1.1,7.2,2.6,9.3,5.5Z"/>
    <g>
      <path class="st68" d="M265.9,177.3c-5.3.3-10.3,3.3-12.7,8,.2,0,.5,0,.7,0s.4.3.3.6c.9-.3,1.4-1.2,2.2-1.8.7,1.3.7,1.8.3,2.4-1.9,2.9.4,6.8,3,8.7,2.8,2.1,5,1.1,7.9,0,4.8-1.7,6.4-9,3-12.9-.4-.5-.9-.6-1-1,0-.6,0-.9.3-1,.6-.3,1.2-.2,1.9.2.3-.1.8-.4.7-.7-.6-1.9-5.1-1.9-6.6-2.6Z"/>
      <path class="st116" d="M270.1,185.2c.4-1.5-.9-3.7-2.5-3.3s-1.5,2.2-.9,3c.7,1,1.8,1.5,3.4.3Z"/>
      <circle class="st108" cx="259.9" cy="185.8" r=".5"/>
    </g>
  </g>
  <path class="st69" d="M228.7,215.8c-.2.2-.3.3-.5.5-.2.2-.3.3-.4.5-.3.4-.7.8-1,1.3-.4.5-.8,1-1.1,1.5-.1.2-.3.4-.4.6-.9.2-1.9.4-2.8.6-3,.6-6,1.4-9,2.1-5.4,1.4-10.7,1.6-16.1.7l-14.5-5.6-9.5-3.6c7.2-3.4,19.2-5.5,28-7l11.2-2c.2,0,.3,0,.5,0,1.5-.2,3.1-.1,4.3-.6-.5,1,.9,7.3.4,7,.2.1.3.5.6.7,3.8,2,6.6,2,10.2,3.4Z"/>
  <path class="st50" d="M233.2,210.4c-1.3.7-2.2,1.8-3,3-.1.2-.2.4-.3.6-.1.2-.2.4-.3.6-.2.5-.5,1-.7,1.4-.3.6-.6,1.2-.8,1.7,0,.2-.2.4-.3.6-.9.4-1.8.7-2.6,1.1-.6,0-1.2-.1-1.8-.2.2-1.1,1.4-.2,2.5-.7-4.9-5.1-8.4-4.9-12.9-8.5-.3-.2-.3-.7-.5-.8.2.2.3-1.4.5-3.2.1-1.6.3-3.3.7-3.7,6.6-.9,11,3.3,18.4,5.6-.4,1.1,1.5.7,1.3,2.3Z"/>
  <path class="st61" d="M308.8,385.3c3.8,3.4,7.8,6.4,12.2,9.4,16.3,11.3,31.7,23.5,46.1,37.2l28.1,26.7,25.2,23.3c.8.6,2,1,2.7,1.7,4.3-3.2,8.1-7.3,11.4-11.5,5.9-21.9.8-41.2-12.3-59.6,2.1,1.1-15.9-9.9-14.5-9.4l-12.9-7.1c-5.7-3.2-11.3-6.7-16.4-10.9-6.9-1.5-12.9-5.1-19.1-8.1-6.1-2.9-11.8-6.8-18.1-11l-13.7-9.2c5.3,6,10.7,11.1,15.2,17.4-9.3-1.8-17.6-5-26.6-7.7,1.9,3.5,5.4,4.7,7.9,8.1-3.8,1.8-6.9,4.1-10.2,6.7l-4.9,3.9Z"/>
  <path class="st79" d="M318.4,515.7c2.3.4,5.5.6,7.9.6,3.4,0,7.4,1,10.7.7,13.6-1.4,27.4-2.6,40.3-7.5-.5-2.5-.5-5.2-.2-7.8,1.7-.6,3-.2,4.2-.5,7.5-2,16.1-2.2,23.2-5.1,6.8-2.8,12.9-8.2,18.6-12.4-.7-.7-1.9-1.1-2.7-1.7-15,3.9-30.2,8.2-46.3,9.2-11.2.7-51.8-9-64.9-12.2-12.7-3.1-24.6-6.9-37-11.2,6,7.1,25.9,19.2,33.3,22.8,18.9,9,41.4,14.7,62.6,18.4-1.8,1.1-3.7,1.5-6,1.5-33.1-.1-83.1-2.9-107-30.1l-8.7-9.9-18.7-13.6c-17.9-13-37.4-25.8-52.4-42.2-.4.2-.4-.7-1.1-.5,20.7,37.6,52.7,67.6,91.7,85.9,17,8,34.4,12.7,52.4,15.7Z"/>
  <path class="st92" d="M422.2,412.5c13,18.3,18.2,37.7,12.3,59.6,1.8-2.4,4.5-4.5,6.1-7,5.8-9.2,10.7-18.8,12.8-29.4.3-1.7.2-3.5.9-5.2s0-.4.2-.6l-32.4-17.4Z"/>
  <path class="st113" d="M255.8,274l11.7,10.9c5.9,5.5,12.5,12,14.5,20.1,3.9,15.3,4.3,31,6.8,46.6.9,5.5,1.2,10.9,4,15.6,4.2,7.1,10.2,12.8,16,18l4.9-3.9c3.3-2.6,6.4-5,10.2-6.7-2.5-3.4-6-4.7-7.9-8.1,9,2.7,17.3,5.8,26.6,7.7-4.5-6.3-9.9-11.3-15.2-17.4l13.7,9.2c6.2,4.2,12,8.1,18.1,11-3.8-7.3-9.5-13.6-14.2-20.5-1.1-1.7-2.9-2.6-3.8-4.8,4,2.1,7.7,4,11.3,6.2,0,0-.5-.6-.4-.8,0-.5.8-.3,1,0s.9.4-.5.9l8.1,5.2c1.3.9,2.9,1.6,4.2,1.9l-.5-1c-.7,0-9.8-5-10.1-6-.2-1.5-.9-2.6-2.1-3.1-.2,1.3-.9.8-.4-.4-2.2-1.7-4.1-3.7-6.2-5.2l-7.8-5.5c-2.4-1.7-5.2-2.6-7.3-5,4.5,1.9,8.3,4.9,12.9,7.6l8.9,5.3c.4.9.7,0,.3-.6-5.6-5.4,1.8-1.5-5.8-7.1.8-1,1.5,0,2.3-.2,2.5-2.2,2.2-.8,2-2.9-.6-.2-1,.8-1.3.6l-5.9-4.2c-1.4-1-2.9-1.6-3.5-2.8-2.1-.8-4.1-2.1-6-4.1l2.3-1.5c0-.5-.7-.9-1.2-1.2-5.2-2.6-10.6-5-15.3-8.5s-5-3.3-7.6-5.7l19,5.6c3.8,1.1,7.6,2.6,11.8,3.3,1.1.2,1.8.4,2.7.9.2-.7,0-.7-.5-.9l-8.9-4.1,4.7.7c-3-2.4-6.4-3.7-9.9-5.7l7.4,1.6-5.2-2.6c-.7.2-.6-.4,0-.4s.7.2,1.5-.2l-10.6-5.1,4.9-.4c-.2-3.8-7.3-3.5-9-4.7l8.3.9c-4.2-3.1-8.8-5.5-13.9-8-.7-.7,0-1.2.5-.2,2.5.6,4.5,1.5,6.9,1.7-4.2-2.6-8.7-4.4-13.4-6.5s-5.9-1.7-7.7-3.7c-.3-.3-.9.3-1.4,0l-9.4-5.1c-4.5-2.5-8.9-3.9-14-4.6s-7-2-10.8-1.6-.8,0-1-.3-.3-.4,0-.7l-8.6.5Z"/>
  <path class="st75" d="M227.7,456.7l18.7,13.6,8.7,9.9c23.9,27.2,73.9,30,107,30.1,2.3,0,4.2-.4,6-1.5-21.2-3.7-43.7-9.4-62.6-18.4-.6-.2-.3.5-.5,1.3-18.5-6.2-36.4-13.8-53.6-23.4-1.9-1.1-4.1-2-5.1-4.1-2.3-4.6-5-8.5-8-12.7-24-34.9-39.1-70.5-48.6-112.6-5.2,9.4-8.5,18.9-11.4,28.7,1.6,13.4,5.4,25.6,11,37.8,8.7,18.5,20.7,34.4,35.5,48.3,1.1,1.1,2.4,1.7,2.9,3.1Z"/>
  <g>
    <path class="st110" d="M175.3,414.6c15,16.3,34.5,29.2,52.4,42.2-.5-1.4-1.8-2-2.9-3.1-14.7-13.9-26.8-29.8-35.5-48.3-5.7-12.2-9.4-24.3-11-37.8,2.9-9.9,6.1-19.3,11.4-28.7,9.6,42,24.6,77.7,48.6,112.6,2.9,4.2,5.7,8.1,8,12.7,1,2,3.2,3,5.1,4.1,17.2,9.6,35.1,17.2,53.6,23.4.2-.8,0-1.4.5-1.3-7.5-3.5-27.3-15.7-33.3-22.8,12.5,4.3,24.3,8.1,37,11.2,13.1,3.2,53.7,12.9,64.9,12.2,16.1-1,31.3-5.2,46.3-9.2l-25.2-23.3-28.1-26.7c-14.4-13.7-29.7-25.9-46.1-37.2-4.5-3.1-8.5-6-12.2-9.4-5.8-5.3-11.8-11-16-18-2.8-4.6-3.1-10.1-4-15.6-2.5-15.7-2.9-31.3-6.8-46.6-2-8.1-8.6-14.6-14.5-20.1l-11.7-10.9c0-.2-.2-.8-.6-.6,0,.2,0,.6-.2.7s-.3.2-.8.2l-30.9,2.9c-6.1.6-11.8.9-17.7,0-5-.8-10.2-2.3-14.2-5.4,0,.6-1,.5-1.6.2-5.6-2.5-12.1-7-14.3-13.3,2.6.1,9.2-.8,8.2,2.5-.1.4.6.4,1,.4-2.7-7.2-3-15.4-2.6-23.2-1.8,1.5-2.2,4.3-2.9,6.5l-1.5,4.9c-4.3,13.9-4.6,9.5-11.8,20.5,1.1-1.7-4.7,8.8-4,7.6l-1.5,2.4c-1.3,2-5.4,13.5-5.9,15.5-.5,2.2-.8,4.2-1.7,6.1s-.6,3.3-.9,5.1l-.7,4-.9,13.5c-.1,1.9-.9,4.2,0,5.8s0,2.2,0,3.4l.6,7.2c.1,1.3,1.1,8.1,1,8,2,.7-1.2.6,1,5,1.2,2.4-.6,2.9,1.2,3.6-.3,1.6-.5,3.8,1.3,4.9-.9.9-.2,1.5.2,1.9s-.6,1.2-.3,1.6l1.1,1.3c1.1,1.2,0,3.9,1.5,5,.9,3.7-1.1,1.8,1.1,3.6-.6,1.5.5,2.3.8,3.1l1.6,4.9c2.9,8.9,9.2,22.9,14.1,30.9Z"/>
    <path class="st101" d="M208.1,337.8c1.4-9.9,2.9-19.9,5.8-29.8.3-1.2.5-2.3,0-3.5-4.8,4.2-8,9.2-9.4,15.3-.3,6.1.3,11.9,3.5,18.1Z"/>
  </g>
  <path class="st109" d="M191.3,271.8c-3.2-2.5-5.2-6.7-6.7-10.2-.4,0-1.1,0-1-.4.9-3.3-5.6-2.4-8.2-2.5,2.2,6.3,8.7,10.8,14.3,13.3s1.6.4,1.6-.2Z"/>
  <path class="st104" d="M264.4,273.5c-.2.3,0,.5,0,.7.2.3.6.3,1,.3,3.8-.4,7.2,1.1,10.8,1.6s9.5,2.1,14,4.6l9.4,5.1c.5.3,1.1-.3,1.4,0,2.3-3.9,4.4-8,5.6-12.3-5.1-1.1-9.2-4.6-12.9-8.3,1.5,3.2,4.5,4.8,6.9,8.1l-36.3.3Z"/>
  <path class="st90" d="M336.6,329.1c3.1.6,7.9,4,10.4,4.5-3.3-2.7-2.9-2.6-6.8-4.3,1.4-1.3,2-.1,4.5,0-1.3-.8-.8-.2-.8-.4-.1-.7,0-1.6.4-1.4l-1.7-1.8c.5-.1.7-.4.8-.7l-2.6-1.1c-.4-.2-6.9-4.1-9-3.7s-.3-.6-.3-1l-19-5.6c2.6,2.4,5.1,3.8,7.6,5.7,4.7,3.5,10.1,5.8,15.3,8.5.5.3,1.1.7,1.2,1.2Z"/>
  <path class="st26" d="M340.2,334.6c2,0,3,1,4.9,1-.9-1.7-4-3.1-4.9-1Z"/>
  <path class="st95" d="M483.4,457.5c-1.2.1,4.9,1.3,1.4,2.2,2.3,1.9,13.4,12.2,11.9,14.8s-8.8,0-11.7,0c2.7,1.9,4.7,4.5,7.2,6.5,8.7,7,17.3,14.5,25.5,22.2l27.5,22.9c6.5,5.4,11.9,10.2,18.4,14,4.9,2.9,18.6,8,24.8,6.8-.6-1-1.8-1.8-2-3-3.9-4.1-10.1-10.9-15-15l-4.7-4-72.6-58.2c-2.8-2.3-5.3-4.1-7.2-6.7l21.4,16.6,49.1,39.4c-.2-1-1.2-1.5-2.1-2.3-18-15.6-35.7-31.1-55.1-45.4-5.7-4.2-11.2-8.8-16.9-10.9Z"/>
  <path class="st22" d="M460.8,444.5c3.6,4.9,8.9,8.2,14.9,10.9s5.4,2.1,7.8,2.1c5.7,2,11.1,6.6,16.9,10.9,19.4,14.3,37.1,29.8,55.1,45.4.9.8,1.8,1.3,2.1,2.3,2.9,2.3,5.3,5.7,8.9,7.7s2.2,2.3,3.5,3.3c3.1,2.3,16.2,13.9,16.5,16.9s1.4,2,2,3c1.4-.3,1.6-2.3,1.9-3.5,1-4.7-1.7-7.8-3.8-11-4-3.5-7.8-7.2-11.8-11.3-7-7.2-14.3-13.3-21.7-19.9-7.9-7-15.8-13.3-24.1-19.7l-14.8-11.4c-.4-2.6-3-3.7-4.5-5.4s-4.2-4.6-6.1-7.2c1-.4,1.5.5,2.2.2-12.6-9.1-27.3-15.5-41.3-22.6-.5.2-1,0-1.3,0s-3.6,4.7-1.9,8.2,0,1-.3,1Z"/>
  <path class="st105" d="M438.2,380.6c7.9,5.1,15.2,11.1,22.6,17s6.1,5,9.3,7.8l6.2,5.6c3.1,2.8,6.1,5.3,8.2,9.1-3.5-2.9-6.7-5.8-9.7-8.6,0,.9,1.2,1.1,1.4,2.3-1.5-.8-2.7-1.7-4.1-2.7-.2-.3-.3-.6-.4-.8-.2-.3-.5-.4-.7,0s-.1.4,0,.6l5.2,4.7c5.1,4.6,11,8.7,15.4,15-5.3-4.5-9.9-10.3-15.8-14.6-12.5-9.2-25.5-17.7-39.3-25.7-4.7-2.7-9-5.1-12.9-8.2-2.1-.4-.6.3-4.2,1.7l4.1,4.9c3.2,1.1,6,3.1,9.2,4.9,13.1,7.5,26,15.1,38,24.7,4.2,3.4,8.3,6.1,12.1,9.6l4.6,4.4c.5.5,2,.5,1.4,1.8-2.1-1.4-3.3-3.6-5.3-5s-3.1-1.9-4.4-3.2c-3.1-3-6.3-5.3-9.8-7.9-11.5-8.5-23.2-16.1-35.6-22.9s-8.3-5.3-10.7-5.7c-2.2.7,2.6,4.6,3,6.6,19.6,10.8,38.2,23.5,57.1,36.1l7.9,5.2c.3.2,1-.3,1,.2s.3.5,0,.8c.8-.3,4.4,3.1,5.7,1.3s-.2-.5,0-.8c-.3,0,.1-1.1,0-1.3-4.8-5.3-8.7-12.7-11.9-19.3-1.7-3.4-4.4-6.9-6.6-10.4-4.6-7.3-11.3-12.8-17.7-18,0,.6,1,1.5,1.3,2.1,4,3.4,7.8,8.4,11.3,12.6,1.4,1.6,2.4,3,3.1,4.7l-12.6-12.6c-1.1-1.1-2.4-2.5-3.4-3.2-11.8-8.4-23.8-16.7-36.6-23.7-7-3.3,16.6,12.8,13.4,10.7Z"/>
  <path class="st5" d="M435.5,361.5c10.9,7.9,20.9,17.4,30.4,26.8,5.3,5.2,10.7,10.4,15,16.5-4.3-9.7-9.9-18.7-16.2-27.4-1-.5-2.1-1.3-3.2-2.4-8-8-17-14.4-26.2-20-.2.3-.3.2-.4,0-.8-1.3,1.1,6.2.4,6.6Z"/>
  <path class="st73" d="M353,247.2c4,1.6,10.8,3.9,15.1,7l-10.8-3.7c-1.9-.6-3.6-1.4-5.2-2-1.2.8-1.2,2.7-2.1,3.6,4.2-2.6,21.3,9.6,25.3,13.3l11.3,10.4c6,5.5,11.2,11.2,15.6,17.9.5.8,1,1.8,1.9,2.1l-.8-2-5.4-7.7c1.5.3,3.1,1,3.8,1.9-2.9-5.5-7.6-10-11.4-14.9,0,.2.2.6-.2,1-8.3-6-12.8-13.9-21.6-19.9-.3-2.5-2.6-3.1-3.9-4.8-2.8-3.5-6.5-5.7-9.3-8.8-.7,1.5-2.1,4.4-2.2,6.2Z"/>
  <path class="st9" d="M514.3,503.8l29.5,28.6c3,2.9,5.8,5.5,9.1,8,3.6,2.7,7.6,2.7,10.7-.2-6.5-3.8-11.8-8.5-18.4-14l-27.5-22.9c-.4-.3-1.3-.7-1.7-.9l-1.7,1.4Z"/>
  <path class="st107" d="M586.5,532.5c-2.4-3.6-4.9-7-8.2-10.3l-10.5-10.2-55.1-49c-1-.9-2.6-1.9-4.1-3l-3-2.1c-.6.3-1.2-.6-2.2-.2,1.8,2.6,3.9,4.9,6.1,7.2s4.1,2.8,4.5,5.4l14.8,11.4c8.4,6.4,16.2,12.7,24.1,19.7,7.5,6.6,14.7,12.7,21.7,19.9s7.8,7.8,11.8,11.3Z"/>
  <path class="st60" d="M422.1,332.7c4.9,1.9,9.1,5.4,13.3,9.3l-5-.3c2.4,2.4,3.1,5.6,4.9,8,5.3,3.1,10.4,7,14.7,11.3,1.2-.2,1.6,1.3,2.6,2,2.9,2.3,5.3,4.8,7.7,7.2-9-14.3-19.9-28-32.5-39.6-4.1-1.6-7-5-10.1-7.8l-9.5-8.2c-.9-.8-1.2-2.2-2.2-1.8,6.8,7.8,8.4,10.4,16.4,16.4,1.6,1.3,3.1,2.8,4.3,4.3-.5,1-5-2.8-4.6-.8Z"/>
  <path class="st24" d="M404,296.1c.4.9,15.1,25.5,14.1,26.2s-.2.4-.4.5c3.2,2.7,6.1,6.2,10.1,7.8-7.4-14.8-16.1-29.3-26.2-42.3-.7-.9-2.3-1.7-3.8-1.9l5.4,7.7.8,2Z"/>
  <path class="st21" d="M461.6,389.9c6.4,5.2,13,10.7,17.7,18s5,6.9,6.6,10.4c0,0,.4,0,.4-.2-1.7-4.4-2.7-9.4-5.4-13.2-4.4-6.1-9.8-11.3-15-16.5-.5,0-.7-.3-1.3-.1s-.7.8-1.4,1.3c-4.9-4.3-12.8-10.7-18-14-3.6-2.3-6.3-6.1-10.9-7.1,9.2,7.5,19.1,13.6,27.3,21.6Z"/>
  <path class="st86" d="M355.2,239.4c.4.3.2,1.3,0,1.6,2.8,3,6.5,5.3,9.3,8.8,1.3,1.6,3.6,2.3,3.9,4.8,8.8,6,13.3,13.8,21.6,19.9.3-.4.1-.8.2-1-9.7-12.5-21-23.8-33.3-34.1-.4-.4-1-.5-1.3-.3s0,.3-.4.4Z"/>
  <path class="st25" d="M491,482.2c-.2.4-.3.7,0,1.2s.6.3.9.7l22.5,19.8,1.7-1.4c.4.2,1.4.6,1.7.9-8.2-7.7-16.8-15.2-25.5-22.2-.7.2-1.3.3-1.3,1.1Z"/>
  <path class="st101" d="M435.5,355c9.2,5.7,18.1,12.1,26.2,20s2.2,1.9,3.2,2.4c-1-2.6-2.6-5.2-4.5-7.2s-4.8-4.9-7.7-7.2-1.4-2.2-2.6-2c0,0,4.2,4.1,2.5,3.9l-8.9-5.8c-2.6-1.7-5.2-3.7-8.1-4.1Z"/>
  <path class="st15" d="M377.3,369.7c1.2,2.1,8.2,12,6.9,14-1.3,2-5.7,1.5-5.8,1.4,5.1,4.1,10.7,7.7,16.4,10.9-.1-.2.2-.6.3-.5,1,.8,10.5,5.1,13.2,4.1-.5-.9-8.7-6.8-8.3-6.7-1.4-.6-2.5-1.2-3.1-2.7,4.5,2.1,7,5.7,11.8,7.8.3-.3-.2-.6-.6-.8l-5.6-4.1c2.4.3,4.5.9,6.7,0l-6-6c1.8.2,3,1.9,5.4,1.9-1.8-2.4-4-4-5.4-6.4.7-.6,1.2-.4,1.9-.6-.7-1.6-2-2.5-3.6-2.7,2.4-1.5-1.9-1.8-2.7-2.4-.6,0-.3-.5.2-.4-1-.2-2.1-1-3.2-1-4.8-.1-9.4-2-13.9-3.8.6-1.1.9-.4,1.7-.5l-2.1-1.3c-1.4.1-2.8,0-4.1,0Z"/>
  <path class="st81" d="M359.3,377.1c6.2,3,12.2,6.5,19.1,8.1.2,0,4.6.6,5.8-1.4,1.3-2-5.7-11.9-6.9-14-4.5-.3-8.8-2.1-12.4-4.6-1.4-.4-2.9-1.1-4.2-1.9l-8.1-5.2c-3.5-2.3-7.3-4.1-11.3-6.2.9,2.2,2.7,3.1,3.8,4.8,4.7,6.9,10.3,13.2,14.2,20.5Z"/>
  <path class="st35" d="M306.6,273.5c-1.2,4.3-3.3,8.4-5.6,12.3,1.8,2,4.9,2.5,7.7,3.7,4.7,2.1,9.2,3.8,13.4,6.5-2.4-.2-4.4-1.1-6.9-1.7-.5-1-1.2-.5-.5.2,5,2.5,9.6,4.9,13.9,8l-8.3-.9c1.7,1.3,8.7,1,9,4.7l-4.9.4,10.6,5.1c-.9.4-1.2.2-1.5.2-.5,0-.6.5,0,.4l5.2,2.6-7.4-1.6c3.6,2.1,6.9,3.3,9.9,5.7l-4.7-.7,8.9,4.1c.4.2.7.2.5.9.7.5,1.8-1.2,2.5-1,1.3.3,1.8,1.8,2.7,2.5,3.9.8,7.7,2.7,11.7,2.7-.2-.6.5-.6,1.5-.7-2.8-3.4-2.5-5-5.4-7.4-5.1-3.4-10.4-6.8-14.7-11.4-6.7-7.3-9.5-22.7-26.6-31.7-.4-.8-.2-2.2.4-2.8-.9-.2-2.2,0-2.5-1.1-2.8.5-6,.9-8.9,1Z"/>
  <path class="st27" d="M349.9,252.3c-.7.7-1.4,1.6-1.9,2.5,7.9,3.6,15,9.1,20.4,16.3,13.2,7,24.2,17.1,32.1,30.1-3.6-1.7-6.2-4-9.4-6.1,2.1,3.6,3.7,7,4.6,10.8-.4-1.7,2.6,6.6,0,5.8l7.2,8.3c.5,0,.7.5,1.1.8.6.5.5-.3,1-.8-.4-1.1-.9-2.2-.8-3.7,2.3,5.9,11.1,13.6,17.3,15.6.2,0-.3.6-.4.4.3.2.6.4,1,.5-.4-1.9,4.1,1.9,4.6.8-1.2-1.5-2.7-3-4.3-4.3-8-6.1-9.5-8.6-16.4-16.4,1-.4,1.2,1,2.2,1.8l9.5,8.2c.3,0,.3-.4.4-.5,1-.7-13.7-25.3-14.1-26.2-.8-.4-1.3-1.3-1.9-2.1-4.4-6.7-9.6-12.4-15.6-17.9l-11.3-10.4c-4-3.7-21.2-16-25.3-13.3Z"/>
  <path class="st17" d="M348,254.8l-6.2,6.3,9.7,3.2c4,1.3,7.6,3.2,11,5.9,12.2,9.6,25,21.8,32.8,35.8-.1.7.6.5.4,0-.9-3.7-2.5-7.2-4.6-10.8,3.2,2.1,5.8,4.4,9.4,6.1-7.9-12.9-18.9-23.1-32.1-30.1-5.4-7.1-12.5-12.7-20.4-16.3Z"/>
  <path class="st72" d="M340.3,262.4c-7.6,4.9-15.9,8.3-24.8,10,.3,1.1,1.6.8,2.5,1.1,12.5,3.5,22.6-2.6,38,1.6,3.2.9,6.1,2,9.7,2.4-4.1-5-9.1-8.4-14.3-11.5-3.4-2-7.3-3.2-11.2-3.6Z"/>
  <path class="st112" d="M352.1,248.7c1.6.6,3.2,1.3,5.2,2l10.8,3.7c-4.3-3.2-11.1-5.4-15.1-7-.7.1-.5,1.1-.9,1.4Z"/>
  <path class="st23" d="M340.3,262.4c3.9.4,7.8,1.6,11.2,3.6v-1.8c.1,0-9.6-3.2-9.6-3.2-.4.4-1.2.9-1.6,1.4Z"/>
  <path class="st103" d="M586.4,544c-.4-2.9-13.4-14.5-16.5-16.9s-2.1-2.6-3.5-3.3c-3.6-1.9-6-5.3-8.9-7.7l-49.1-39.4-21.4-16.6c1.9,2.6,4.4,4.4,7.2,6.7l72.6,58.2,4.7,4c4.8,4,11.1,10.8,15,15Z"/>
  <path class="st55" d="M453.5,435.7c-.4.7,8.8,10.9,7.3,8.8.4,0,.5-.6.3-1-1.7-3.5,1.4-8.2,1.9-8.2s.8.2,1.3,0c-3.2-1.6-6.5-3.5-9.8-4.7-.7,1.6-.6,3.5-.9,5.2Z"/>
  <path class="st34" d="M411.4,374.3c1.3,2.3,1,5.2,2.1,7.9l2.5,6.2c.6,1.5-.4,3.1-1.1,4.2.7,1.7,2.8,2.9,3,5.1s0,2.9-1.4,3.3c-2.3.7-3.1-1.4-4.7-1.2v.5c4.4,2,9,4,13.9,3.6.4-.7,1.3-.7,1.9-1-1.5-2.1-3.6-4.3-5.8-5.9,1.7-.1,2.7.5,3.9.2,0-.5.6-.6.5-1-.4-2.1-5.2-5.9-3-6.6-.2-.4,0-.7.5-.7l-4.1-4.9c3.6-1.4,2.1-2,4.2-1.7s.3-.3.4-.5l-12.7-7.4Z"/>
  <g>
    <path class="st29" d="M394.8,396l12.9,7.1,23.3,12.3c11.5,6.1,22.8,11.8,34.8,16.9s19.8,9.2,28.8,15.3,2.4,1.2,2.7,2.4c.9,0,6,3,6.2,4.2-1.3-.4-6-3.4-6.2-4.2-.8,0-1.3-.5-2.1-1-9.2-6.7-19.2-11.3-30.3-15.2s-7.3-2.4-10.4-4.1c-.1.2,0,.4-.2.6,3.4,1.3,6.6,3.1,9.8,4.7,14,7.1,28.7,13.5,41.3,22.6,1.3-.7,4.2,3.1,7.2,3.8.3.3.8,0,.9-.4s0-.9-.3-1.3c-3.7-7.8-9.1-14.3-14.2-21.1s0-.9-.7-.5.3.4.2,1.2c.5.5,1.2,2.5.5,2.9-3,.4-5-2.3-7.1-3.5-5.4-3.1-10.5-6.8-15.9-10.4l-18.8-12.6-19.4-12-8.8-5.2c-1.1-.7-2.2-1.8-3.6-1.5s-2.2-.3-3.9-.2c2.2,1.6,4.3,3.7,5.8,5.9,6.4,3.2,12.2,7.7,18.3,11.3l19.9,12,16.7,10c1.9,1.1,11.4,7.7,12.8,8.9l4.1,3.6,3.1,2.6c1.1,1,2.3,2,3.1,3.1.3,0,.5,0,.8,0s.3.4.3.7-.3.4-.5.2-.5-.5-.6-.8c-1.3.2-2.1-1.2-3-2l-3.7-3.1c-1.2-1-2.3-2.2-3.6-3.1l-9.8-7.2-13.8-8.3-25.5-15c-6.8-4-14.2-7-20.5-11.7-4.9.4-9.5-1.6-13.9-3.6s-3.7-1.6-3.1-2.1c-4.8-2-7.3-5.7-11.8-7.8.6,1.5,1.8,2,3.1,2.7-.4-.2,7.8,5.8,8.3,6.7-2.7,1-12.2-3.3-13.2-4.1s-.4.3-.3.5Z"/>
    <g>
      <path class="st58" d="M492.3,438.3c-.1.2-.1.3,0,.5,2.1,1.2,4.1,3.9,7.1,3.5.7-.4,0-2.4-.5-2.9s-.6-.6-1-.7c-.2.3.2.6,0,.8-1.3,1.8-4.9-1.7-5.7-1.3Z"/>
      <path class="st58" d="M505.6,457.8l3,2.1c1.5,1.1,3.1,2.1,4.1,3,0-.5.2-.9.1-1.4-3-.6-6-4.4-7.2-3.8Z"/>
      <path class="st57" d="M407.7,403.1c-1.4-.6,16.7,10.5,14.5,9.4l32.4,17.4c3.1,1.7,6.6,2.8,10.4,4.1,11.1,3.8,21.1,8.5,30.3,15.2.7.5,1.3,1,2.1,1-.3-1.2-1.7-1.7-2.7-2.4-9-6.1-18.5-10.9-28.8-15.3s-23.3-10.8-34.8-16.9l-23.3-12.3Z"/>
      <path class="st71" d="M425.7,397.1c1.3-.4,2.4.8,3.6,1.5l8.8,5.2,19.4,12,18.8,12.6c5.4,3.6,10.5,7.3,15.9,10.4-.1-.2-.1-.4,0-.5.3-.3,0-.5,0-.8,0-.5-.8,0-1-.2l-7.9-5.2c-18.9-12.6-37.5-25.3-57.1-36.1.2.5-.6.6-.5,1Z"/>
      <path class="st8" d="M445.9,414.1c.1.5,0,1,.3,1.4l25.5,15,13.8,8.3,9.8,7.2c1.3,1,2.4,2.1,3.6,3.1l3.7,3.1c1,.8,1.7,2.3,3,2-.8-1.1-2-2.1-3.1-3.1l-3.1-2.6-4.1-3.6c-1.4-1.2-10.9-7.8-12.8-8.9l-16.7-10-19.9-12Z"/>
      <path class="st20" d="M425.7,403.8c6.3,4.7,13.7,7.7,20.5,11.7-.3-.4-.2-1-.3-1.4-6.1-3.7-11.9-8.1-18.3-11.3-.6.3-1.6.3-1.9,1Z"/>
      <path class="st57" d="M497.3,450.1c.2.8,4.8,3.8,6.2,4.2-.2-1.2-5.3-4.3-6.2-4.2Z"/>
      <path class="st51" d="M408.7,398c-.5.6,2.6,1.9,3.1,2.1v-.5c-.6-.8-2.2-1.2-3.1-1.6Z"/>
      <path class="st46" d="M508.7,457.9l2.5,2.2c.2-1.7-1.4-2.4-2.5-2.2Z"/>
      <path class="st46" d="M507.1,456.8c.3.8.8,1.2,1.5,1-.5-.4-.6-1.4-1.5-1Z"/>
      <path class="st11" d="M505.6,455.8c.2.9,1,1,1.5,1-.2-.9-.9-1.2-1.5-1Z"/>
      <path class="st98" d="M505.6,455.8c-.2-.6-1-1.4-1.4-.9-.3.7,1,.9,1.4.9Z"/>
      <path class="st8" d="M505.6,454.3c0,.4.4.7.6.8s.5,0,.5-.2c0-.3-.1-.7-.3-.7s-.4,0-.8,0Z"/>
    </g>
  </g>
  <path class="st96" d="M424.8,369.2c.2.2.2.5,0,.7,12.8,6.9,24.8,15.3,36.6,23.7.9.1,1.1-1,1.6-1.6-.3-.6-1.3-1.4-1.3-2.1-8.3-7.9-18.2-14-27.3-21.6,4.5,1,7.2,4.8,10.9,7.1,5.2,3.3,13.1,9.7,18,14,.7-.5.9-1.2,1.4-1.3s.9.1,1.3.1c-9.5-9.5-19.6-18.9-30.4-26.8-2.6,1.8-5.7,1.5-8.7,0,1,1.6,1.2,3.1.7,4.9-.3,1.1-1.4,2.2-2.7,2.8Z"/>
  <path class="st12" d="M438.7,389.8c11.2,6.2,21.8,13.6,32.3,21.1-.1-.2-.1-.4,0-.6.2-.4.5-.3.7,0s.2.5.4.8c1.4,1,2.6,1.9,4.1,2.7-.2-1.2-1.4-1.3-1.4-2.3-4.6-4.3-9.3-8.6-14.4-12.4s-10.3-7.2-15.6-10.6c-.9,1.4-5.8-1.7-5.6-1.6-.1,1.1.5,2.2-.4,3Z"/>
  <path class="st82" d="M423.7,382.1c3.9,3.1,8.2,5.5,12.9,8.2,13.7,8,26.7,16.4,39.3,25.7-.1-.3,0-.5.4-.4l-5.2-4.7c-10.5-7.5-21.1-14.9-32.3-21.1l-14.6-8.1c0,.1-.1.5-.4.5Z"/>
  <path class="st91" d="M419,372.8l16.5,9.8c.7-.9,2.2-.8,2.6-2,3.2,2.1-20.5-14.1-13.4-10.7.2-.2.2-.4,0-.7-.6.3-1.3-.7-1.7-.2-1.2,1.2.9,1.6-4,3.8Z"/>
  <path class="st100" d="M438.2,380.6c-.3,1.2-1.9,1.1-2.6,2l9.1,5.8c5.3,3.4,10.5,6.8,15.6,10.6.5-.4.5-.9.5-1.5-7.3-5.9-14.7-11.9-22.6-17Z"/>
  <path class="st10" d="M423.6,388.7c-.4,0-.6.3-.5.7,2.4.4,7.9,4.2,10.7,5.7,12.4,6.8,24.1,14.4,35.6,22.9,3.5,2.6,6.7,4.9,9.8,7.9s3,2.2,4.4,3.2,3.2,3.6,5.3,5c.5-1.3-.9-1.3-1.4-1.8l-4.6-4.4c-3.8-3.6-7.8-6.2-12.1-9.6-12-9.7-24.9-17.3-38-24.7-3.2-1.8-6-3.8-9.2-4.9Z"/>
  <path class="st88" d="M460.3,399c5.1,3.8,9.9,8.1,14.4,12.4,3,2.9,6.2,5.8,9.7,8.6-2.1-3.8-5.1-6.3-8.2-9.1l-6.2-5.6c-3.1-2.8-6.2-5.4-9.3-7.8,0,.6,0,1.1-.5,1.5Z"/>
  <path class="st83" d="M461.3,393.5c1,.7,2.2,2.1,3.4,3.2l12.6,12.6c-.6-1.7-1.7-3.1-3.1-4.7-3.5-4.2-7.3-9.2-11.3-12.6-.5.6-.7,1.7-1.6,1.6Z"/>
  <path class="st31" d="M476.2,415.6c-.3,0-.5.2-.4.4,5.9,4.3,10.5,10.1,15.8,14.6-4.4-6.3-10.3-10.5-15.4-15Z"/>
  <path class="st7" d="M431.9,355.3c-.2.8,0,1.8-.5,2.4s-1.6,1-2.6.7l-5.2-1.5c-2.9,1.4-3.2-1-3.9,0,.6.4,1.7,1.2,2.4,2,1,1.1.6,2.9-.1,3.7s-1.9.6-3,.9c.9,1.7-6,.3-5.7,1-.1,1.4-1.4,2.2-3,2-10.1-1.6-16.4-7.5-23.7-12.7,2.4,2.3,4.7,4.8,7.7,7.2,2.4,1.9,4.6,4.1,6.7,6.3.8.9-.8,1.7-1.5,1.7-2.1,0-3.7-.9-5.4-1.3s-3.4,0-5.1,0c-.5.4-.3,1.7-.4,2.2,2.5,4.2,5.1,3.6,7.1,5.7,1.2,0,2.3.9,3.2,1,3.4.5,9.9,1,10.7-3.5,0-.5,0-.9,0-1.9l6.7,1.7c.8.2,1.8-.3,2.6,0,4.9-2.2,2.8-2.7,4-3.8s1.2.5,1.7.2c1.3-.6,2.3-1.7,2.7-2.8.5-1.8.3-3.3-.7-4.9,3.1,1.5,6.2,1.8,8.7,0,.7-.4-1.2-7.9-.4-6.6-.2-.3-.3-.7-.5-1.1-.6,0-1.3,1.8-1.9,1.8s-.4-.5-.8-.3Z"/>
  <path class="st92" d="M435.3,349.6c-.8,1.3.3,3-.7,4.2.1.4.3.7.5,1.1,0,.3.2.4.4,0,2.9.4,5.5,2.4,8.1,4.1l8.9,5.8c1.8.2-2.6-4-2.5-3.9-4.3-4.3-9.4-8.2-14.7-11.3Z"/>
  <path class="st84" d="M430.3,349.8c2.6,1.8.1-1,3.4-.6s.6,3.7.9,4.7c1-1.2-.1-2.9.7-4.2-1.8-2.4-2.5-5.6-4.9-8l5,.3c-4.2-3.9-8.4-7.4-13.3-9.3s-.6-.3-1-.5c-.8.8-1-1.4-2.2-.4,4.3,3.3,14.4,11.7,12.8,17.8-.6.3-1.3.1-1.4.3Z"/>
  <path class="st3" d="M351.1,324.9c.8.9.2,2.1-.3,2.8-.7,1.2-2.2,1.4-3.4,1l-3.2-1.1c-.5-.2-.5.7-.4,1.4s-.4-.4.8.4c-2.5-.2-3-1.4-4.5,0,3.9,1.6,3.5,1.5,6.8,4.3-2.5-.5-7.3-3.9-10.4-4.5l-2.3,1.5c1.8,1.9,3.9,3.2,6,4.1.8-2.1,3.9-.7,4.9,1-1.8,0-2.9-.9-4.9-1,.6,1.2,2.1,1.8,3.5,2.8l5.9,4.2c.4.3.7-.8,1.3-.6,1.1-.2,1.4-1.3,1.9-2.4,1.1.7,5,2.9,5,1.4s-.4-.4,0-.8c3.2,2.4,6.9,3.8,10.7,3.2,1.8-.7,2.9-2.2,2.9-4.4.3.5,1.2.6,1.3,1.3,2,.8,3.7,2.1,6.1,2.2s4.6-1.3,4.9-4.1c.8.2,1.3.6,1.8.9,1.5.8,3,1.3,4.7,1.5,2.2-.2,3.8-1.9,4.3-4.4,1.7.8,2.6,1.7,3.8,1.9s2.7.7,4.1.5c1.9-1.3,2.7-3.4,2.6-5.6-.2-.2-.7-.3-.5-.8-5.4-1.8-14.7-1.8-20-3.4-2-.6-4.2-1-6.2-1.1-4.5,4.5-8.9.5-15.5.6s-7.8-1.9-11.7-2.7Z"/>
  <path class="st111" d="M351,341.1c.2,2.1.5.7-2,2.9.4,2,3.1,1.3,4.1,2.1l8.8,7.6c1.6,1.4,2.9,2.7,4.6,3.5,5.1,2.6,15.9,14.6,22.2,12.6,0-.5-.2-1.8.4-2.2,1.7.1,3.6-.3,5.1,0-.3-1.3-1.1-2.1-2.3-3-5.5-4-14.6-13.9-19.6-19.2s-1.9-3.3-3.6-3c-3.8.6-7.5-.7-10.7-3.2-.4.4,0,.7,0,.8,0,1.5-3.9-.7-5-1.4-.5,1.1-.8,2.2-1.9,2.4Z"/>
  <path class="st114" d="M352.5,351.2l.9.4c.6.3,0,1.1-.3,1.6,5.7,4,11.5,7.4,17.5,12.5-1.8,1.5-2.9-1.1-4.8-.5-.4.1-.3-.5-.4-.7-.1-.5-.7-.4-1-.4l.5,1c3.6,2.5,7.9,4.3,12.4,4.6s2.8.2,4.1,0c.2-.2,0-.8-.6-1.2-5.2-3.6-10.1-7.2-14.4-11.4-1.7-.9-3-2.2-4.6-3.5l-8.8-7.6c-.9-.8-3.7,0-4.1-2.1-.7.2-1.4-.8-2.3.2,7.6,5.6.1,1.7,5.8,7.1Z"/>
  <path class="st76" d="M364.4,364.1c.4,0,.9-.1,1,.4s0,.8.4.7c1.9-.6,3,2.1,4.8.5-6-5.1-11.7-8.5-17.5-12.5.3-.5.8-1.3.3-1.6l-.9-.4c.4.6,0,1.5-.3.6l-8.9-5.3c-4.5-2.7-8.4-5.7-12.9-7.6,2.1,2.4,4.9,3.3,7.3,5l7.8,5.5c2.1,1.5,4,3.4,6.2,5.2-.5,1.2.2,1.7.4.4,1.2.5,1.9,1.6,2.1,3.1.4,1,9.5,6,10.1,6Z"/>
  <path class="st18" d="M344.2,327.6l3.2,1.1c1.2.4,2.7.2,3.4-1s1.1-1.9.3-2.8c-.9-.7-1.4-2.2-2.7-2.5s-1.8,1.5-2.5,1-1.6-.7-2.7-.9c-4.2-.7-8-2.2-11.8-3.3,0,.4,0,1.1.3,1,2.1-.3,8.6,3.6,9,3.7l2.6,1.1c-.1.3-.4.6-.8.7l1.7,1.8Z"/>
  <path class="st40" d="M352.5,358c1.5-.5.7-.5.5-.9s-.9-.5-1,0,.3.8.4.8Z"/>
  <path class="st48" d="M399,376.5c-.5,0-.8.4-.2.4.8.6,5.1.9,2.7,2.4,1.6.2,2.9,1,3.6,2.7-.7.2-1.2,0-1.9.6,1.4,2.4,3.6,4,5.4,6.4-2.3,0-3.5-1.7-5.4-1.9l6,6c-2.2.9-4.3.3-6.7,0l5.6,4.1c.4.3.9.5.6.8.9.4,2.5.8,3.1,1.6,1.6-.1,2.4,2,4.7,1.2s1.5-1.8,1.4-3.3c-.2-2.2-2.3-3.3-3-5.1.7-1.1,1.7-2.7,1.1-4.2l-2.5-6.2c-1.1-2.7-.9-5.6-2.1-7.9-.6-.3-1.3-.7-1.7-1.3-.8,4.5-7.3,4-10.7,3.5Z"/>
  <path class="st33" d="M366.5,357.2c4.2,4.2,9.2,7.8,14.4,11.4.5.4.8,1,.6,1.2l2.1,1.3c-.8.1-1.1-.6-1.7.5,4.5,1.8,9.1,3.6,13.9,3.8-2-2.1-4.6-1.5-7.1-5.7-6.2,2.1-17.1-10-22.2-12.6Z"/>
  <path class="st89" d="M351.6,264.2v1.8c5.1,3.1,10.1,6.5,14.2,11.5-3.6-.4-6.6-1.5-9.7-2.4-15.4-4.2-25.6,1.9-38-1.6-.6.7-.9,2-.4,2.8,22.2,3.1,40.3,20.9,44.7,42.9.5,1.2.5-.7,1.2-1.2,3.2,1.5,5.9,3.2,8.7,5.2,2,1.4,4.5,2,6,3.8,2,.1,4.2.5,6.2,1.1.1-.1.1-.3,0-.5-10.9-7.4-14.7-20.1-18.4-33.3l8.5,5.6c3.6,2.4,7.8,3.9,11.5,6.1,3.1,1.9,7.1,2.8,9.6,5.7,2.6.8-.3-7.4,0-5.8.1.6-.6.7-.4,0-7.7-14-20.6-26.2-32.8-35.8-3.5-2.7-7-4.6-11-5.9Z"/>
  <path class="st70" d="M317.6,276.4c17.1,9,19.9,24.4,26.6,31.7,4.2,4.6,9.6,8,14.7,11.4s2.2.4,2.4,2.1c1.1-.9.1-1.9,1-2.3-4.4-22-22.5-39.8-44.7-42.9Z"/>
  <path class="st67" d="M362.3,319.3c-.9.4.1,1.4-1,2.3-.3-1.7-1.8-1.6-2.4-2.1,2.9,2.4,2.7,4,5.4,7.4-1,.1-1.7,0-1.5.7,6.6-.1,11,3.9,15.5-.6-1.5-1.7-4-2.3-6-3.8-2.8-2-5.5-3.7-8.7-5.2-.7.5-.7,2.4-1.2,1.2Z"/>
  <path class="st64" d="M405,319.8c1.3,3.4,5.8,8.3,9,10-1.6.4-2.9-.8-4.2-.2-.5.2-1.1,2-.8,2.5,4,4.8,15.7,16.9,21.3,17.6.1-.2.8,0,1.4-.3,1.5-6.1-8.5-14.5-12.8-17.8,1.2-.9,1.4,1.2,2.2.4.2.2.6-.3.4-.4-6.2-2.1-15-9.8-17.3-15.6-.2,1.5.3,2.6.8,3.7Z"/>
  <path class="st101" d="M386.1,305.9c2,3.5,5.1,7.6,7,11.4l10,11.1c.9,1,2.3,1.6,2.4,2.9.8.4,1.8.6,3.1.8-1.2-5.6-3.6-7.8-5.7-12.2l-7.2-8.3c-2.5-2.8-6.5-3.8-9.6-5.7Z"/>
  <path class="st115" d="M403,319.8c2.1,4.4,4.5,6.7,5.7,12.2-1.3-.1-2.3-.3-3.1-.8-.3.2-.8-.2-1.1.2-.2.5.3.5.5.8l18.6,17.3c2.7,2.5,5.2,4.6,8.3,5.7.4-.2.6.3.8.3.6,0,1.3-1.8,1.9-1.8-.3-.9.2-4.5-.9-4.7-3.2-.4-.7,2.4-3.4.6-5.5-.7-17.3-12.8-21.3-17.6-.3-.5.3-2.2.8-2.5,1.3-.6,2.6.6,4.2.2-3.2-1.7-7.7-6.7-9-10-.4.4-.4,1.2-1,.8s-.6-.9-1.1-.8Z"/>
  <path class="st99" d="M409.7,373c.3.6,1.1.9,1.7,1.3l12.7,7.4,14.6,8.1c.9-.8.2-1.9.4-3-2.6-2.4-6-3.7-9-5.6-5.3-3.4-9.8-5.5-13.6-8.5l-6.7-1.7c0,1,0,1.4,0,1.9Z"/>
  <path class="st106" d="M416.4,372.7c3.8,3,8.3,5.2,13.6,8.5s6.4,3.2,9,5.6c-.2-.1,4.8,3,5.6,1.6l-9.1-5.8-16.5-9.8c-.8-.4-1.8.1-2.6,0Z"/>
  <path class="st53" d="M372.7,339.3c.2,1.2,2,1.8,2,3.1l11.8,11.4c7.2,5.2,13.6,11.1,23.7,12.7,1.6.3,2.9-.6,3-2-8-5.3-15.1-11.9-21.5-19-.4-.4-6.5-6.1-6.2-7.2-.5-.3-1-.7-1.8-.9-.4,2.8-2.4,4.2-4.9,4.1s-4.1-1.4-6.1-2.2Z"/>
  <path class="st47" d="M390.2,339.8c5.6,7.5,13,13.6,20,19.7,2.4,2,6,2.7,8.7,4,1-.3,2.3-.1,3-.9s1.1-2.6.1-3.7-1.8-1.6-2.4-2c-8-5.4-14.6-12.7-21.3-19.6-1.3-.2-2.1-1.1-3.8-1.9-.6,2.5-2.2,4.2-4.3,4.4Z"/>
  <path class="st59" d="M402.5,337.8c1.8,2.8,4.5,4.9,7,7.4,4.4,4.5,9,8.3,14.1,11.6l5.2,1.5c1,.3,2-.1,2.6-.7s.4-1.6.5-2.4c-3.1-1.1-5.6-3.2-8.3-5.7l-18.6-17.3c.1,2.2-.7,4.3-2.6,5.6Z"/>
  <path class="st45" d="M368.6,342.4c1.7-.3,2.7,2,3.6,3,5,5.3,14.2,15.2,19.6,19.2s2,1.7,2.3,3c1.7.4,3.2,1.3,5.4,1.3s2.3-.9,1.5-1.7c-2.2-2.2-4.3-4.3-6.7-6.3-3-2.4-5.3-4.8-7.7-7.2-1,.4-7.4-6.6-9.3-8.4s-2.7-1.4-2.5-3c0-1.3-1.8-1.9-2-3.1s-1-.8-1.3-1.3c0,2.2-1.1,3.7-2.9,4.4Z"/>
  <path class="st92" d="M398.4,337.3c6.6,6.9,13.2,14.2,21.3,19.6.7-1.1,1.1,1.3,3.9,0-5.1-3.3-9.8-7.1-14.1-11.6s-5.1-4.7-7-7.4c-1.4.2-2.7-.3-4.1-.5Z"/>
  <path class="st77" d="M391.7,345.5c6.4,7.1,13.5,13.7,21.5,19-.3-.7,6.6.7,5.7-1-2.7-1.3-6.3-2-8.7-4-.4,0-.9-.3-1.5.2,1,1-.7,1.3-.5.2-3.8-2.7-6.3-4.9-9.7-8.2l-6-5.9c-.3-.3-.6-.1-.9-.1Z"/>
  <path class="st28" d="M383.6,315.7c.2.3,6.7,14.1,1,11.9,0,.2,0,.3,0,.5,5.4,1.6,14.6,1.7,20,3.4.3-.3.7,0,1.1-.2-.1-1.3-1.5-1.9-2.4-2.9l-10-11.1c-.7.6-1.5.5-2.5,0-3.1-1.5-4,.4-7.1-1.6Z"/>
  <path class="st13" d="M391.7,345.5c.3,0,.6-.1.9.1l6,5.9c3.4,3.3,5.9,5.6,9.7,8.2-.2,1.1,1.5.9.5-.2.5-.5,1.1-.2,1.5-.2-7.1-6.1-14.4-12.2-20-19.7-1.7-.3-3.3-.7-4.7-1.5-.3,1.2,5.8,6.8,6.2,7.2Z"/>
  <path class="st52" d="M384.6,327.6c5.7,2.2-.8-11.6-1-11.9-1.6-2.6-9.2-13.4-8.9-15.8l-8.5-5.6c3.6,13.3,7.5,26,18.4,33.3Z"/>
  <path class="st30" d="M383.6,315.7c3.1,2,4,.2,7.1,1.6s1.8.6,2.5,0c-1.9-3.8-5-7.8-7-11.4-3.7-2.2-7.9-3.7-11.5-6.1-.3,2.4,7.3,13.2,8.9,15.8Z"/>
  <path class="st7" d="M386.6,353.8l-11.8-11.4c-.2,1.5,1.6,2,2.5,3,1.8,1.8,8.2,8.8,9.3,8.4Z"/>
  <g>
    <rect class="st2" x="94.7" y="189.2" width="105.4" height="225.3" transform="translate(67.6 -24.4) rotate(12.3)"/>
    <g>
      <g>
        <circle class="st66" cx="162.3" cy="235.6" r="22.2" transform="translate(-19.7 14.9) rotate(-4.9)"/>
        <line class="st65" x1="143" y1="207.4" x2="180.6" y2="263.6"/>
        <line class="st65" x1="190.5" y1="216.3" x2="134" y2="255.7"/>
      </g>
      <g>
        <circle class="st66" cx="147.9" cy="301.6" r="22.2" transform="translate(-162.8 429) rotate(-86.2)"/>
        <line class="st65" x1="128.7" y1="273.3" x2="166.2" y2="329.5"/>
        <line class="st65" x1="176.1" y1="282.3" x2="119.6" y2="321.6"/>
      </g>
      <g>
        <circle class="st66" cx="133.6" cy="367.5" r="22.2" transform="translate(-242.1 476) rotate(-86.1)"/>
        <line class="st65" x1="114.3" y1="339.3" x2="151.8" y2="395.5"/>
        <line class="st65" x1="161.8" y1="348.2" x2="105.2" y2="387.6"/>
      </g>
    </g>
  </g>
  <g>
    <path class="st92" d="M242.3,210.5c-3.2,0-6.3-1.7-9.1,0,.2-1.6-1.7-1.2-1.3-2.3-7.3-2.4-11.8-6.5-18.4-5.6-1.5.2-3.3-.3-4.9-.4l-11.3-.4c-8.9-.3-21.1-.8-28.9,1-.6-.4-1.6-.4-2.2-1-.7-.7.8-1.4,1.1-1.9,6-7.9,14.5-13.6,22.5-19.5,5.9-4.4,13.4-6.9,20.2-10.9,2.6,4.8,1.2,9.1,2.2,14,.3,1.6,2.4,2.7,3.8,3.6l3.2,2c1.8,1.1,9,4,9.7,6.8-4.8,2-10,2.7-15.5,2.3l-23.1-1.4c-7-.4-14.3-.1-20.1,3.2l.5.8,11.7-.4c2.7-.1,5.4-.1,8.2,0l15,.5c2.8,0,5.3.2,7.9.3.3.1,1.5.8,2.1.8.5,0,1-.8,1.7-.6,2.3.7-1.4.7,3,.8,3.1-.6,6.8-3.7,9.5-5.2,2.5,3.4,9,11.5,12.4,13.8Z"/>
    <path class="st43" d="M229.9,196.6c-2.7,1.5-6.4,4.6-9.5,5.2-4.4,0-.8,0-3-.8-.8-.2-1.2.5-1.7.6-.6,0-1.8-.7-2.1-.8-2.6,0-5.2-.2-7.9-.3l-15-.5c-2.7,0-5.4,0-8.2,0l-11.7.4-.5-.8c5.8-3.3,13.1-3.6,20.1-3.2l23.1,1.4c5.5.3,10.7-.3,15.5-2.3.3,0,.6.4,1,1Z"/>
  </g>
</svg>
